<svg version="1.1" id="Layer_1" xmlns="http://www.w3.org/2000/svg" xmlns:xlink="http://www.w3.org/1999/xlink" x="0px" y="0px"
	 width="100%" viewBox="0 0 1258 998" enable-background="new 0 0 1258 998" xml:space="preserve">
<path fill="#132B39" opacity="1.000000" stroke="none" 
	d="
M4.000000,1.000000 
	C422.285400,1.000000 840.570801,1.000000 1258.928101,1.000000 
	C1258.928101,333.580627 1258.928101,666.161255 1258.928101,999.000000 
	C840.967285,999.000000 422.934570,999.000000 4.436636,998.546570 
	C3.969924,824.330566 3.963539,650.568054 3.968275,476.805481 
	C3.972597,318.203644 3.988949,159.601822 4.000000,1.000000 
M609.052124,460.268005 
	C608.122925,476.070679 607.106567,491.869141 606.338379,507.679657 
	C606.185791,510.820526 605.171021,512.423645 602.125854,513.371277 
	C586.382996,518.270325 573.523315,527.555115 563.184448,540.222107 
	C559.064270,545.270081 555.799988,551.016663 551.549255,557.331787 
	C603.677673,557.331787 654.126221,557.331787 705.247375,557.331787 
	C704.202087,555.174622 703.580139,553.659973 702.769836,552.253967 
	C692.305725,534.097534 677.449951,520.998230 657.602051,514.060364 
	C653.096069,512.485229 651.451599,510.335846 651.201294,505.649139 
	C648.624695,457.393341 645.920166,409.143890 643.021973,360.906433 
	C642.605957,353.982880 642.379028,347.692474 649.503967,343.828278 
	C650.473083,343.302673 651.367065,342.282135 651.847656,341.276581 
	C653.492371,337.835144 656.310852,337.520477 659.713989,337.424164 
	C677.697632,336.914886 695.674561,336.171356 713.654297,335.521240 
	C715.043274,335.471039 716.435730,335.514648 718.622437,335.514648 
	C715.110535,344.906189 711.941345,353.381317 708.388977,362.881012 
	C712.908508,362.881012 716.358398,362.638977 719.759155,362.944275 
	C723.726929,363.300415 725.481995,361.799164 726.916565,357.982544 
	C733.301086,340.996002 740.012268,324.128265 746.893066,307.335419 
	C748.381287,303.703217 750.845093,300.391174 753.290649,297.269409 
	C754.287842,295.996582 756.432739,295.622864 758.055481,294.840057 
	C755.574890,301.586182 752.352600,306.979645 749.630554,312.614716 
	C746.935486,318.193787 744.745056,324.016571 742.145691,330.176941 
	C759.638977,328.619293 777.701599,315.536713 784.367554,300.302917 
	C791.546204,283.897308 787.034058,265.092651 773.311401,254.225693 
	C760.502930,244.082718 740.537415,244.178986 726.767456,254.966217 
	C719.531799,260.634613 716.009460,268.535004 716.882507,277.837128 
	C717.736938,286.941589 725.743835,292.288483 735.359497,290.618591 
	C744.007446,289.116791 748.402283,282.362152 746.725098,273.794769 
	C746.313110,271.690033 746.561768,267.903290 747.683289,267.371643 
	C750.082336,266.234375 753.545410,265.859406 756.042114,266.716888 
	C761.330688,268.533295 764.803467,277.127533 762.803955,282.364197 
	C762.452881,283.283722 760.565247,284.317322 759.556702,284.166321 
	C754.612427,283.425995 750.573669,285.087280 747.390808,288.583801 
	C743.152222,293.240112 738.829834,297.916016 735.328125,303.112274 
	C733.134033,306.368134 730.858948,308.262024 727.028259,308.376373 
	C705.234985,309.026947 683.438660,309.597290 661.651489,310.412476 
	C656.742615,310.596161 653.193176,309.482330 650.412720,305.031464 
	C648.826965,302.493195 645.862305,300.692352 643.264282,298.935333 
	C637.161804,294.808167 637.282104,285.349579 643.619080,281.814514 
	C658.305603,273.621704 663.554260,255.551041 655.543457,240.759720 
	C647.636414,226.160141 629.897888,220.599030 615.129395,228.239319 
	C604.434204,233.772369 598.558350,242.769989 598.479919,254.737854 
	C598.399292,267.049011 604.162781,276.367188 615.118103,282.378693 
	C616.630798,283.208801 618.708252,284.932281 618.714172,286.250305 
	C618.738770,291.709259 619.499451,297.600006 612.510681,300.386566 
	C610.073730,301.358215 607.882385,303.815247 606.408081,306.123566 
	C604.312988,309.403961 601.730774,310.122467 598.081787,310.100708 
	C572.561584,309.948425 547.061157,310.454041 521.918945,315.511627 
	C507.025848,318.507507 492.980316,323.411682 482.025787,334.724365 
	C466.909210,350.335205 465.959351,373.200745 480.008301,389.493835 
	C481.903076,391.691254 481.730316,393.281128 480.651215,395.687897 
	C474.383820,409.666534 468.269043,423.714081 462.184723,437.773834 
	C461.219391,440.004639 460.670197,442.415558 459.599121,445.777405 
	C463.777191,445.777405 467.213928,445.511597 470.591614,445.844604 
	C474.823578,446.261841 476.517883,444.502441 478.028412,440.557953 
	C484.754730,422.993011 491.865906,405.572205 499.091858,388.204956 
	C500.335541,385.215942 502.571014,382.513977 504.823364,380.127777 
	C505.821228,379.070648 508.002411,379.130493 509.942322,378.602783 
	C505.778534,386.117157 502.228302,392.524261 497.995117,400.163879 
	C504.847229,400.163879 510.193939,400.920288 515.245728,400.020691 
	C529.832886,397.423065 539.485535,387.604156 540.851990,374.958588 
	C541.726990,366.861603 538.157227,360.445557 531.440369,358.042908 
	C523.869934,355.334930 516.256775,357.973083 511.892029,364.787903 
	C511.369659,365.603485 510.860199,366.762878 510.090576,367.029785 
	C505.354004,368.672272 500.544403,370.104034 495.386444,371.722900 
	C495.672943,371.985229 495.302002,371.807617 495.223389,371.543152 
	C494.989319,370.755493 494.768280,369.939514 494.721527,369.124359 
	C494.167236,359.457397 498.670868,352.498077 506.586853,347.530121 
	C514.970154,342.268921 524.391968,339.670746 534.070557,339.128693 
	C553.851685,338.020874 573.675964,337.694733 593.480591,336.992523 
	C599.289001,336.786591 604.817261,336.887573 607.739624,343.298553 
	C608.249451,344.417084 609.484680,345.427368 610.629211,345.994629 
	C614.973083,348.147644 615.314758,351.681305 615.051880,356.013977 
	C612.963074,390.443024 611.054321,424.883026 609.052124,460.268005 
M478.975708,496.467682 
	C498.743561,507.193054 518.609924,507.409424 537.879089,495.757233 
	C553.712952,486.182434 562.633118,471.759247 564.930908,452.731079 
	C526.723022,452.731079 489.207977,452.731079 450.936951,452.731079 
	C453.314514,471.915863 462.580261,486.020142 478.975708,496.467682 
M783.500000,369.209961 
	C755.915466,369.209961 728.330933,369.209961 700.119019,369.209961 
	C700.648376,372.500916 700.867432,374.959259 701.453125,377.326935 
	C705.424805,393.383514 714.855103,405.353790 728.951355,413.799927 
	C761.968750,433.583191 808.249451,411.687378 813.641907,373.805084 
	C814.165283,370.128571 813.007385,369.076935 809.487427,369.145966 
	C801.161133,369.309296 792.829468,369.201385 783.500000,369.209961 
M595.236755,636.660950 
	C594.287842,637.901978 593.338989,639.142944 591.898499,641.026733 
	C587.917053,634.902832 584.453857,629.455139 580.842346,624.107544 
	C579.954651,622.793152 578.634033,620.889282 577.425476,620.822144 
	C571.360657,620.485107 565.266968,620.667664 558.067810,620.667664 
	C559.467346,623.056946 560.221130,624.458069 561.079956,625.791443 
	C566.404541,634.057983 571.599976,642.414307 577.167358,650.514648 
	C579.435059,653.813965 579.237305,656.265076 577.042542,659.472290 
	C571.585510,667.446655 566.466736,675.653137 561.252625,683.792358 
	C560.428833,685.078308 559.816345,686.499634 558.644226,688.742004 
	C564.519104,688.742004 569.324463,688.522278 574.098572,688.813354 
	C577.749817,689.036011 579.908325,687.633911 581.734497,684.563721 
	C584.836060,679.349548 588.332642,674.370361 592.167053,668.524231 
	C596.229797,674.753662 599.607971,680.061035 603.142090,685.262451 
	C604.023926,686.560242 605.359924,688.411926 606.570740,688.478088 
	C612.623474,688.808472 618.703979,688.629272 625.655457,688.629272 
	C624.315308,686.311035 623.567200,684.884216 622.698181,683.535278 
	C617.372986,675.269348 612.106567,666.963135 606.628418,658.799255 
	C604.797668,656.070984 604.696289,653.919800 606.576538,651.124695 
	C612.250061,642.691040 617.670898,634.087036 623.159424,625.529724 
	C623.997009,624.223694 624.671326,622.812866 625.922546,620.539673 
	C621.255432,620.539673 617.604797,620.849365 614.027283,620.469666 
	C608.126038,619.843506 603.783936,621.279297 601.247864,627.200867 
	C599.890015,630.371338 597.537231,633.115784 595.236755,636.660950 
M747.019958,639.254211 
	C741.118408,655.437866 735.216919,671.621521 728.991394,688.693604 
	C735.118652,688.693604 740.229675,688.844177 745.318604,688.575989 
	C746.435974,688.517151 748.261780,687.097412 748.426392,686.086914 
	C749.844971,677.379333 755.575317,676.045898 762.942444,677.075684 
	C764.411438,677.281006 765.966919,677.307861 767.425415,677.068909 
	C772.641052,676.214661 775.503540,678.332275 776.767578,683.457031 
	C777.228149,685.324158 778.789062,688.217773 780.087219,688.353516 
	C785.419312,688.910767 790.843506,688.586426 795.837769,688.586426 
	C796.273926,687.642151 796.437561,687.459045 796.397949,687.349487 
	C788.644836,665.924255 781.197510,644.378906 772.896179,623.167786 
	C770.685913,617.520142 764.229431,621.250732 759.775574,620.730408 
	C757.629456,620.479736 755.198669,622.111389 753.013916,623.139587 
	C752.474060,623.393616 752.385864,624.616821 752.099121,625.397827 
	C750.493530,629.771667 748.890747,634.146484 747.019958,639.254211 
M494.849670,686.639648 
	C496.479889,687.339539 498.097809,688.609436 499.742371,688.644836 
	C508.896759,688.842224 518.059814,688.867798 527.215698,688.709900 
	C540.237305,688.485352 538.126953,691.291809 538.441528,676.822083 
	C538.512024,673.581604 537.367737,672.361511 534.108093,672.453125 
	C528.118286,672.621582 522.118591,672.410889 516.125977,672.519592 
	C513.168274,672.573181 512.029602,671.440125 511.957703,668.427368 
	C511.811432,662.295471 511.930359,662.025330 518.215698,662.000854 
	C520.213928,661.993103 522.213745,662.051086 524.210205,661.991150 
	C537.289856,661.598938 535.323792,664.928162 535.605713,649.724609 
	C535.662964,646.638733 534.406860,645.631226 531.451233,645.708008 
	C526.126465,645.846313 520.793945,645.658936 515.466980,645.747986 
	C511.946533,645.806824 512.040100,643.514709 511.988983,641.055054 
	C511.936829,638.544922 512.461609,636.832458 515.506592,636.925659 
	C519.166321,637.037598 522.832520,636.933838 526.495911,636.932983 
	C538.167175,636.930298 538.010803,636.932312 537.989441,625.265381 
	C537.982422,621.444031 536.647400,620.420349 533.033142,620.479309 
	C522.045715,620.658691 511.049866,620.705200 500.064972,620.459778 
	C495.926056,620.367310 494.629639,621.665649 494.670746,625.831177 
	C494.867920,645.811646 494.775604,665.794983 494.849670,686.639648 
M448.500610,688.742310 
	C452.664124,688.742371 456.829926,688.831909 460.990723,688.726013 
	C474.370453,688.385620 472.129639,691.502075 472.429901,676.571838 
	C472.490509,673.557800 471.364441,672.391418 468.347412,672.463623 
	C462.688385,672.599060 457.014954,672.302979 451.364258,672.557739 
	C447.380157,672.737366 446.187378,671.183533 446.249908,667.334717 
	C446.436523,655.846558 446.314667,644.353394 446.314178,632.862183 
	C446.313629,619.802063 446.317902,619.888794 433.048767,620.480103 
	C430.010986,620.615540 429.004730,621.687744 429.016602,624.654175 
	C429.096680,644.638550 429.117676,664.623901 429.002869,684.607971 
	C428.983154,688.038025 430.443665,688.885010 433.513123,688.780884 
	C438.170868,688.622925 442.837952,688.741089 448.500610,688.742310 
M661.137268,620.573303 
	C659.140259,620.562195 657.115906,620.758118 655.151611,620.498962 
	C650.377197,619.868958 648.869507,621.679871 648.955200,626.556335 
	C649.244568,643.026917 649.065430,659.505859 649.065430,675.981567 
	C649.065430,689.400208 649.061890,689.312927 662.368774,688.773804 
	C665.363831,688.652405 666.459900,687.701660 666.447510,684.684448 
	C666.365601,664.714233 666.352539,644.743103 666.463196,624.773132 
	C666.481750,621.424500 665.169739,620.216003 661.137268,620.573303 
M832.065125,688.738525 
	C835.932678,689.242737 836.318359,686.946045 836.303894,683.867615 
	C836.224060,666.902588 836.267517,649.937012 836.268127,632.971619 
	C836.268616,620.190430 836.269592,620.335388 823.641907,620.455811 
	C819.794006,620.492554 818.896240,621.934998 818.925171,625.478516 
	C819.063354,642.442810 818.986206,659.408875 818.985901,676.374268 
	C818.985657,688.746460 818.985840,688.746460 832.065125,688.738525 
M802.576111,353.616364 
	C797.143860,339.180939 791.583313,324.804382 783.436340,310.730377 
	C780.393005,313.854736 777.680481,316.320984 775.407776,319.141541 
	C774.590149,320.156250 774.241821,322.232330 774.679993,323.469635 
	C778.962219,335.561523 783.418823,347.592590 787.946289,359.595490 
	C788.419006,360.848724 789.608826,362.692505 790.566589,362.756622 
	C795.404114,363.080322 800.274963,362.905457 805.793579,362.905457 
	C804.564880,359.337311 803.704163,356.837738 802.576111,353.616364 
M553.319031,436.882599 
	C547.935242,423.036041 542.878967,409.038025 535.262390,396.113220 
	C531.906311,398.061340 529.004028,399.410583 526.549561,401.331879 
	C525.533386,402.127380 524.699402,404.419495 525.101746,405.569336 
	C529.442810,417.974060 533.991821,430.307678 538.662354,442.592926 
	C539.146057,443.865265 540.718933,445.506104 541.891846,445.595612 
	C546.466431,445.944611 551.083435,445.737976 556.510803,445.737976 
	C555.348938,442.512054 554.464661,440.056641 553.319031,436.882599 
M308.883148,751.958740 
	C309.278198,753.231079 309.390015,754.718628 310.147614,755.715393 
	C310.910004,756.718323 312.301147,757.780457 313.441620,757.808594 
	C314.592987,757.836975 316.526489,756.862793 316.820465,755.922424 
	C318.632446,750.126709 320.077637,744.216248 321.655029,738.305664 
	C313.619904,735.735596 316.403229,743.658203 313.476196,745.591187 
	C310.317596,743.736206 313.083374,737.617188 307.419830,737.661133 
	C301.996002,737.703247 305.031555,744.116699 301.448914,745.498291 
	C298.871979,743.141296 301.261932,735.522156 293.352844,738.418335 
	C294.955078,744.296814 296.402466,750.085632 298.204926,755.761719 
	C298.515350,756.739319 300.256226,757.641785 301.473053,757.879639 
	C304.811005,758.532166 304.829285,755.631592 305.793365,753.589966 
	C306.268402,752.583984 305.424103,749.289734 308.883148,751.958740 
M469.767609,738.161682 
	C468.359253,738.010803 466.950928,737.859985 465.547302,737.709656 
	C464.944946,739.810181 464.481903,741.424805 463.753326,743.965454 
	C462.117767,741.807922 461.284271,740.095337 459.925323,739.100830 
	C458.741058,738.234314 456.976379,737.969482 455.442047,737.878418 
	C454.916718,737.847168 453.834808,739.137085 453.819031,739.841553 
	C453.686829,745.739624 453.743835,751.642029 453.743835,757.651123 
	C455.888275,757.651123 457.300598,757.651123 458.676849,757.651123 
	C459.139801,755.246338 459.544586,753.143616 460.222382,749.622803 
	C462.245575,752.602234 463.205536,754.569641 464.683655,756.002625 
	C465.710632,756.998230 467.456818,757.670227 468.867950,757.647217 
	C469.438690,757.638000 470.422882,755.402588 470.445526,754.166077 
	C470.539490,749.034180 470.338165,743.896851 469.767609,738.161682 
M1101.549072,739.792175 
	C1098.741089,739.081238 1095.898560,737.674500 1093.132690,737.811768 
	C1088.187622,738.057312 1084.442871,742.739441 1084.355225,747.661316 
	C1084.268433,752.536011 1087.532593,756.840210 1092.150391,757.940125 
	C1097.314209,759.170166 1102.665283,756.632629 1104.585938,752.043152 
	C1106.228149,748.118835 1105.206543,746.639893 1101.095703,746.260559 
	C1096.934937,745.876648 1093.357056,746.146729 1091.817871,751.490051 
	C1091.033447,749.072388 1090.244629,746.349854 1091.236450,745.283142 
	C1092.431519,743.997986 1095.263672,743.431213 1097.165894,743.775757 
	C1101.088379,744.486145 1102.006958,744.144714 1101.549072,739.792175 
M765.174194,756.072083 
	C765.428833,754.820679 765.683533,753.569214 766.106873,751.488831 
	C769.253662,755.076294 770.486389,760.093933 775.512634,757.538818 
	C775.043152,754.506165 773.655334,751.351929 774.371887,748.785217 
	C775.402161,745.094727 776.396973,741.220276 772.791443,739.553772 
	C769.320862,737.949768 764.902527,738.344299 760.886414,738.070068 
	C760.559326,738.047729 759.802856,739.632629 759.787781,740.480286 
	C759.687866,746.091370 759.736084,751.705139 759.736084,758.290833 
	C761.905273,757.684570 763.458496,757.250366 765.174194,756.072083 
M526.920349,737.844055 
	C523.560181,737.054688 522.429138,738.502014 522.581116,741.785583 
	C522.765320,745.764404 522.767944,749.765015 522.584106,753.743896 
	C522.396606,757.801758 524.081177,758.801147 527.643738,757.453247 
	C529.213135,749.673645 529.213135,749.673645 535.067261,750.689148 
	C535.322510,752.843445 535.589172,755.094666 535.889832,757.632690 
	C537.434998,757.632690 538.831421,757.632690 540.855957,757.632690 
	C540.855957,751.669922 540.952942,745.892456 540.748474,740.125610 
	C540.718750,739.287659 539.104614,737.741333 538.473572,737.859253 
	C537.388123,738.062256 536.105408,739.137024 535.629578,740.177124 
	C535.059937,741.422302 535.249939,743.014954 535.093079,744.642090 
	C532.821472,744.642090 530.905334,744.642090 528.931152,744.642090 
	C528.441040,742.306580 528.008118,740.243835 526.920349,737.844055 
M1069.995361,756.558350 
	C1073.894409,753.763794 1076.074951,749.775635 1074.188477,745.410400 
	C1072.907593,742.446716 1069.972168,739.413147 1067.028198,738.135742 
	C1062.547729,736.191650 1058.223877,738.053589 1055.438721,742.301453 
	C1052.771362,746.369751 1053.121826,750.514099 1055.936401,754.341492 
	C1058.879028,758.343140 1063.637573,759.169922 1069.995361,756.558350 
M110.155502,742.905212 
	C111.023956,741.426025 111.892410,739.946899 112.760864,738.467712 
	C112.367317,737.947449 111.973778,737.427124 111.580238,736.906799 
	C108.628006,738.362793 105.675774,739.818726 103.281395,740.999573 
	C100.324287,739.660522 97.375641,738.325317 94.427002,736.990173 
	C93.810097,737.448364 93.193192,737.906616 92.576286,738.364868 
	C99.830330,744.702393 99.440414,751.090820 93.077316,757.034180 
	C98.525879,759.888611 100.494278,755.439575 103.326157,753.588623 
	C107.781586,758.504700 107.781586,758.504700 112.336525,757.078796 
	C107.777367,746.739807 107.777367,746.739807 110.155502,742.905212 
M434.881256,737.734802 
	C427.330902,737.395996 422.415894,741.522522 422.556549,748.082214 
	C422.671570,753.445435 426.439789,757.565552 431.759583,758.144409 
	C437.088745,758.724365 441.836182,755.554138 443.140198,750.544739 
	C444.616730,744.872742 441.980072,740.421509 434.881256,737.734802 
M144.978745,742.267029 
	C143.168869,747.300232 141.358978,752.333435 139.549088,757.366638 
	C139.991577,757.741638 140.434052,758.116638 140.876526,758.491699 
	C142.621979,757.669250 144.296661,756.455627 146.130875,756.123901 
	C148.401077,755.713318 150.855423,755.735596 153.133011,756.130920 
	C155.061676,756.465637 156.851990,757.597473 158.703522,758.376587 
	C159.023544,757.948975 159.343582,757.521362 159.663605,757.093750 
	C157.815186,751.991028 156.149323,746.810059 154.015289,741.829773 
	C153.307266,740.177368 151.297531,737.854309 150.058533,737.957031 
	C148.364594,738.097351 146.838379,740.262085 144.978745,742.267029 
M731.264587,753.483459 
	C730.967957,754.825684 730.671326,756.167847 730.009460,759.162842 
	C733.101135,757.637756 734.745544,756.362976 736.556030,756.050476 
	C738.842163,755.655823 741.314209,755.766968 743.611389,756.182861 
	C745.555542,756.534790 747.364990,757.630920 749.234009,758.397766 
	C749.515747,757.988342 749.797546,757.578918 750.079285,757.169495 
	C747.993835,751.442627 746.048889,745.657104 743.703979,740.038513 
	C743.237244,738.920227 741.228943,737.818542 739.951721,737.841370 
	C738.674133,737.864197 736.789185,739.022522 736.272705,740.176453 
	C734.445374,744.258911 733.089844,748.552673 731.264587,753.483459 
M1176.465576,757.947021 
	C1177.560303,757.820984 1178.655029,757.694946 1180.343750,757.500488 
	C1178.082642,751.354431 1176.107422,745.580811 1173.819946,739.933838 
	C1172.616943,736.964478 1167.916138,736.526550 1166.730103,739.315735 
	C1164.243896,745.162903 1162.263184,751.225098 1159.710571,758.193542 
	C1162.556763,757.764160 1164.819702,758.097778 1165.520142,757.205139 
	C1169.424438,752.229675 1172.502197,755.012146 1176.465576,757.947021 
M249.584595,757.067993 
	C251.875366,753.800842 254.386932,753.872009 257.498291,756.124390 
	C259.023041,757.228210 261.126160,757.533142 262.967529,758.199646 
	C261.630585,751.170410 259.671051,745.376953 257.384247,739.715637 
	C256.309296,737.054626 251.604706,736.600098 250.532364,739.098572 
	C247.968292,745.072632 245.921310,751.268677 243.391403,758.117188 
	C246.112976,757.874023 247.566345,757.744080 249.584595,757.067993 
M919.855957,757.455627 
	C922.338135,753.887817 924.968811,753.438721 928.419922,756.466736 
	C929.717468,757.605164 931.955017,757.672302 934.992188,758.604919 
	C932.319763,751.334717 930.318848,745.537598 927.987915,739.876282 
	C927.568359,738.857300 925.758972,737.782349 924.646667,737.838196 
	C923.300049,737.905701 921.282104,738.840759 920.821838,739.933899 
	C918.451477,745.564331 916.487244,751.365784 914.126709,757.801636 
	C916.282227,757.801636 917.711304,757.801636 919.855957,757.455627 
M621.302551,754.408325 
	C621.128662,755.463989 620.954773,756.519592 620.547363,758.992737 
	C623.312500,757.670471 624.963440,756.466553 626.778931,756.117065 
	C629.075806,755.674805 631.571655,755.572083 633.859253,755.991333 
	C635.767517,756.340942 637.499207,757.653931 639.309143,758.540283 
	C639.684204,758.111084 640.059265,757.681824 640.434387,757.252625 
	C638.388855,751.692932 636.497925,746.067566 634.184448,740.621704 
	C633.636169,739.331177 631.667358,737.884216 630.357239,737.889221 
	C629.026917,737.894348 627.076477,739.323059 626.491638,740.621216 
	C624.581604,744.860413 623.170471,749.324402 621.302551,754.408325 
M331.108246,747.350647 
	C329.918335,750.690186 328.728424,754.029785 327.538513,757.369324 
	C327.930511,757.734924 328.322510,758.100586 328.714539,758.466187 
	C330.452698,757.677185 332.357544,757.125122 333.891937,756.046326 
	C336.513885,754.202820 338.695435,754.023438 341.349701,756.142456 
	C342.787292,757.290283 344.947021,757.533630 346.781006,758.184937 
	C345.443665,751.299866 343.522888,745.652161 341.214142,740.167847 
	C340.733917,739.027039 338.820862,737.862427 337.560425,737.854065 
	C336.307617,737.845642 334.583984,738.999878 333.889648,740.143738 
	C332.704254,742.096558 332.161865,744.439819 331.108246,747.350647 
M393.869995,747.421021 
	C393.040802,746.736084 392.211639,746.051086 391.193268,745.209778 
	C392.815918,743.892456 394.050934,742.889832 395.255890,741.911560 
	C392.405823,737.395447 387.541718,735.505249 384.370972,738.437317 
	C375.784332,746.377808 385.834564,748.276367 390.431702,752.299377 
	C386.567474,753.174561 383.033417,748.937256 380.870697,753.579895 
	C383.641296,758.179016 388.747467,759.694885 393.045074,757.194092 
	C396.475769,755.197754 396.922241,752.130737 393.869995,747.421021 
M602.633118,737.503418 
	C596.298889,738.614746 592.713562,742.008240 592.397766,747.191040 
	C592.088928,752.259888 595.398376,756.808472 600.219421,757.941467 
	C605.405457,759.160095 609.227966,757.401123 612.312866,751.307678 
	C609.631775,751.499512 607.692383,751.764709 605.756287,751.742493 
	C603.676636,751.718689 600.752014,752.176758 599.750244,751.046753 
	C598.652222,749.808228 598.490051,746.360840 599.478027,745.053467 
	C600.402039,743.830872 603.892334,743.200073 605.321472,743.991394 
	C608.172241,745.569702 609.836914,744.983154 611.839478,742.782532 
	C610.078918,739.117249 607.072144,737.795837 602.633118,737.503418 
M873.644836,739.020020 
	C869.465393,741.787659 867.580200,745.612366 868.889709,750.533752 
	C870.065491,754.952820 873.086487,757.624634 877.714355,758.109497 
	C882.180908,758.577515 885.830261,757.287354 888.597900,751.427307 
	C885.798340,751.556213 883.856262,751.789368 881.929932,751.696472 
	C879.729858,751.590271 877.045227,751.846375 875.530762,750.689209 
	C874.556641,749.944946 874.521667,745.908203 875.471924,745.178528 
	C877.005554,744.001038 879.690491,744.230835 881.904114,744.059082 
	C883.826477,743.909973 885.769592,744.028015 888.349121,744.028015 
	C884.662292,737.565125 881.040222,736.434326 873.644836,739.020020 
M1151.200439,754.013855 
	C1150.529175,750.042053 1148.596191,750.207397 1145.377197,751.633972 
	C1143.711670,752.372070 1140.414062,752.140137 1139.438232,750.995667 
	C1138.359863,749.730652 1138.257690,746.249512 1139.279175,744.976501 
	C1140.253662,743.762146 1143.612915,743.286926 1145.227417,744.020081 
	C1148.062378,745.307556 1149.827393,745.091187 1151.555054,742.740112 
	C1147.157715,736.345032 1139.389282,735.721436 1134.661133,741.245728 
	C1131.153687,745.343811 1131.419434,751.489075 1135.267334,755.260742 
	C1139.548218,759.456848 1145.486694,759.193176 1151.200439,754.013855 
M662.098022,743.049500 
	C662.468933,742.535400 662.839844,742.021362 663.210815,741.507202 
	C661.295776,740.125671 659.453613,737.771606 657.446289,737.621155 
	C655.192383,737.452332 652.017395,738.684570 650.694580,740.416077 
	C649.630127,741.809509 650.509766,744.898132 650.960083,747.147888 
	C651.176575,748.229126 652.393494,749.110107 653.160217,750.085449 
	C651.476257,751.389343 650.197815,752.379333 648.902222,753.382568 
	C650.563904,757.583923 653.872375,758.822205 657.466919,758.057312 
	C659.764221,757.568298 663.422668,755.573853 663.486023,754.123901 
	C663.620361,751.048157 661.803223,747.887207 660.571533,744.101440 
	C660.214172,744.366333 660.856262,743.890442 662.098022,743.049500 
M561.250000,757.971680 
	C563.119812,757.617615 566.038025,759.111450 566.085571,755.461548 
	C566.133606,751.771301 563.158142,753.324707 561.326050,752.856018 
	C560.422791,752.625000 559.586792,752.130859 558.448364,751.638062 
	C561.125427,750.173706 564.538757,749.430725 564.981262,747.854065 
	C566.316467,743.095703 560.029175,746.633240 559.052063,743.279358 
	C560.410095,743.112671 561.689514,743.259338 562.631226,742.763977 
	C563.834595,742.130920 564.765625,740.980042 565.814026,740.052307 
	C564.808716,739.258667 563.883545,737.950439 562.781372,737.778809 
	C560.503845,737.424133 558.090698,737.418762 555.816956,737.786743 
	C554.712769,737.965393 552.968201,739.271851 552.929932,740.130920 
	C552.672668,745.903503 552.796021,751.692993 552.796021,757.971802 
	C555.753296,757.971802 558.057007,757.971802 561.250000,757.971680 
M687.031067,738.304016 
	C683.006653,738.048950 678.982239,737.793945 674.869751,737.533325 
	C674.869751,744.842102 674.869751,751.209839 674.869751,757.959839 
	C678.435547,757.959839 681.591248,758.160461 684.695557,757.848816 
	C685.752014,757.742737 686.678894,756.346497 687.664917,755.539795 
	C686.755859,754.666260 685.986877,753.453613 684.902100,753.005676 
	C683.569153,752.455200 681.972656,752.543335 679.483521,752.227722 
	C682.671570,750.240540 684.745178,748.947998 686.818787,747.655396 
	C684.914978,746.258301 683.011169,744.861206 681.112732,743.459595 
	C683.044067,741.753845 688.436340,744.894592 687.031067,738.304016 
M83.273743,756.289856 
	C84.306038,750.255249 77.248779,754.927063 76.430389,751.544250 
	C78.609894,750.144531 80.554276,748.895813 82.498650,747.647095 
	C80.551796,746.261292 78.604942,744.875488 76.422241,743.321838 
	C78.538162,743.022949 80.687759,742.719360 83.239822,742.358887 
	C83.093445,740.691223 82.973869,739.328918 82.859108,738.021362 
	C78.458984,738.021362 74.545868,738.021362 70.558441,738.021362 
	C70.558441,744.787415 70.558441,751.170349 70.558441,758.363281 
	C75.036308,757.891846 79.036247,757.470764 83.273743,756.289856 
M827.962830,749.377075 
	C827.964050,750.704590 827.902039,752.035889 827.981201,753.358765 
	C828.103149,755.397095 827.463318,758.336365 830.837952,757.801819 
	C832.054504,757.609131 832.882141,755.320740 834.008850,754.100952 
	C835.148010,752.867676 836.401123,751.730957 837.673035,750.631470 
	C838.749573,749.700928 839.924316,748.883850 841.055603,748.016541 
	C839.991333,747.087280 839.013855,746.020264 837.832947,745.276062 
	C837.010620,744.757874 835.909180,744.682495 834.932434,744.409241 
	C835.823669,743.330994 836.777832,743.294495 837.517578,742.877563 
	C838.858337,742.121826 840.071411,741.139587 841.337769,740.251892 
	C839.916138,739.363892 838.503540,737.724792 837.071350,737.707520 
	C826.219543,737.576233 828.163452,736.633728 827.966431,746.450684 
	C827.953064,747.114136 827.964905,747.778137 827.962830,749.377075 
M799.649902,742.549866 
	C801.732300,739.407776 801.218567,737.587341 797.124451,737.594971 
	C793.968628,737.600891 790.804138,737.484924 787.662354,737.698914 
	C786.755005,737.760803 785.234314,738.732117 785.192200,739.365845 
	C785.121033,740.439941 785.908569,742.481628 786.497559,742.542480 
	C790.614075,742.967163 789.842224,745.923340 789.900085,748.472961 
	C789.949036,750.631348 789.594666,752.865479 790.058533,754.921814 
	C790.322632,756.092529 791.881104,757.781128 792.835999,757.767578 
	C793.877625,757.753052 795.599426,756.157776 795.784668,755.045105 
	C796.242859,752.292542 795.699280,749.373962 796.151428,746.619385 
	C796.377686,745.241272 797.901794,744.076233 799.649902,742.549866 
M991.160522,747.656128 
	C991.811646,749.832642 992.965881,752.000183 993.004883,754.187622 
	C993.077209,758.236328 994.940491,758.489136 996.723328,757.902832 
	C999.692505,750.680908 1002.260193,744.435425 1004.775391,738.317749 
	C999.480225,735.413330 998.550110,741.166809 995.286255,742.992920 
	C993.348633,739.439209 991.356812,736.028137 986.280579,738.503418 
	C987.870544,741.479126 989.338440,744.226379 991.160522,747.656128 
M369.072815,744.786499 
	C370.104706,742.646301 371.136627,740.506165 372.135071,738.435364 
	C366.311310,735.622375 365.435883,740.931885 362.758484,743.384766 
	C360.258087,740.439880 358.961914,735.504272 353.394104,738.571716 
	C354.252106,740.246460 355.181580,741.791382 355.859802,743.439636 
	C357.348114,747.056458 359.379547,750.625732 359.941681,754.400208 
	C360.556793,758.530579 362.286102,758.307739 364.093353,757.761841 
	C365.855194,753.057251 367.278015,749.257812 369.072815,744.786499 
M507.831818,744.943298 
	C508.604950,744.259399 509.431305,743.625854 510.137756,742.878845 
	C511.023560,741.942261 511.810944,740.912537 512.640808,739.923035 
	C511.618774,739.149536 510.647156,737.804749 509.565216,737.709229 
	C506.284088,737.419434 502.947601,737.454407 499.660919,737.716919 
	C498.694794,737.794067 497.396667,738.889648 497.047455,739.818115 
	C496.785126,740.515625 497.732910,742.488831 498.251984,742.530640 
	C502.640991,742.884644 501.772552,746.063904 501.836761,748.747864 
	C501.888153,750.896545 501.522247,753.131104 502.016876,755.163147 
	C502.288055,756.277222 503.854767,757.540222 505.036560,757.788940 
	C505.712921,757.931213 507.448151,756.250427 507.562744,755.258301 
	C507.921143,752.155212 507.735657,748.989258 507.831818,744.943298 
M1033.119507,737.872314 
	C1032.546997,744.409668 1031.974487,750.946960 1031.359375,757.970581 
	C1035.321167,757.970581 1037.963013,757.997009 1040.604004,757.959351 
	C1041.905273,757.940796 1043.204956,757.803894 1044.770264,757.703552 
	C1044.770264,756.109436 1044.770264,754.721436 1044.770264,753.380920 
	C1037.346924,752.338562 1037.348022,752.338562 1037.340698,745.050476 
	C1037.339233,743.553345 1037.777954,741.840393 1037.193481,740.619873 
	C1036.608032,739.397522 1034.995605,738.667053 1033.119507,737.872314 
M948.695923,757.975891 
	C951.451172,757.975891 954.206482,757.975891 957.362732,757.975891 
	C957.268799,755.955933 957.204529,754.574219 957.143433,753.260559 
	C949.991699,752.499634 949.992310,752.499634 949.984253,745.698730 
	C949.982300,744.045532 950.330261,742.280396 949.856628,740.774597 
	C949.480164,739.577576 948.095947,738.697388 947.159241,737.676636 
	C946.213318,738.676392 944.515137,739.629944 944.450500,740.683716 
	C944.157654,745.459900 944.123596,750.279846 944.485657,755.046814 
	C944.565552,756.099426 946.636230,757.000793 948.695923,757.975891 
M54.512783,752.847046 
	C53.775436,751.432739 52.537125,750.064758 52.401478,748.594910 
	C52.085621,745.172424 52.300762,741.700989 52.300762,737.750916 
	C50.166119,737.847961 48.642368,737.917236 47.193600,737.983093 
	C47.193600,744.899780 47.193600,751.256592 47.193600,757.969788 
	C50.299931,757.969788 52.991112,758.270935 55.566841,757.855835 
	C57.090908,757.610229 58.432529,756.232666 59.856190,755.364136 
	C58.377712,754.539001 56.899231,753.713867 54.512783,752.847046 
M1189.714844,749.433655 
	C1189.714844,752.162231 1189.714844,754.890869 1189.714844,757.953308 
	C1193.626099,757.953308 1196.623047,758.192322 1199.547852,757.837158 
	C1200.739502,757.692322 1201.774414,756.257874 1202.880615,755.410156 
	C1201.757690,754.579163 1200.620850,753.029541 1199.514282,753.050781 
	C1196.065063,753.116943 1195.249146,751.487305 1195.379883,748.467834 
	C1195.528442,745.041260 1195.414307,741.603333 1195.414307,738.393066 
	C1191.026367,736.825500 1189.402466,738.056091 1189.689331,742.010376 
	C1189.845093,744.156677 1189.716553,746.323608 1189.714844,749.433655 
M279.306732,744.695923 
	C279.306732,742.575745 279.306732,740.455505 279.306732,736.627258 
	C276.705231,738.132446 273.991730,738.910950 273.926544,739.869568 
	C273.526733,745.747925 273.726349,751.667053 273.726349,757.942322 
	C277.797729,757.942322 281.111633,758.108337 284.387909,757.830566 
	C285.253113,757.757141 286.421112,756.419189 286.659729,755.464417 
	C286.823181,754.810242 285.511414,753.026184 285.042328,753.090149 
	C278.609985,753.967712 279.101990,749.714172 279.306732,744.695923 
M973.343567,745.613770 
	C973.343567,743.160889 973.343567,740.707947 973.343567,736.472656 
	C970.782593,738.083801 968.104492,738.927124 968.032776,739.952759 
	C967.623169,745.811523 967.833923,751.713623 967.833923,757.955994 
	C971.870361,757.955994 975.027588,758.162537 978.129028,757.837097 
	C979.130615,757.731873 979.985474,756.228699 980.907349,755.365051 
	C980.098389,754.555359 979.191467,752.970703 978.495911,753.058594 
	C972.966858,753.757019 973.086121,750.261963 973.343567,745.613770 
M816.742554,749.429932 
	C816.734070,746.439270 816.994812,743.410217 816.576477,740.478027 
	C816.422485,739.398682 814.773193,738.026245 813.600098,737.783630 
	C812.864197,737.631348 810.976257,739.291199 810.925598,740.210815 
	C810.651855,745.180054 810.623108,750.182312 810.927124,755.147644 
	C810.988708,756.153198 812.740051,757.568726 813.911926,757.804932 
	C814.643494,757.952393 816.235779,756.396729 816.570374,755.331543 
	C817.046875,753.814331 816.723572,752.045959 816.742554,749.429932 
M1118.654907,737.593628 
	C1117.696167,738.786133 1116.006470,739.922852 1115.910400,741.181213 
	C1115.572021,745.614563 1115.571899,750.106079 1115.917725,754.538452 
	C1116.012817,755.758423 1117.761597,756.849304 1118.751587,757.999451 
	C1119.752197,756.850952 1121.525757,755.759827 1121.615967,754.543823 
	C1121.957397,749.944824 1121.894409,745.297607 1121.646118,740.686584 
	C1121.588989,739.624573 1120.195435,738.634583 1118.654907,737.593628 
M852.317017,755.000977 
	C853.454407,755.997437 854.591797,756.993896 855.729187,757.990417 
	C856.520752,756.980896 857.942383,756.003662 857.996094,754.956299 
	C858.241699,750.164246 858.276184,745.341370 857.968811,740.556396 
	C857.901733,739.511475 856.122009,738.576477 855.131042,737.590881 
	C854.191284,738.620422 852.516968,739.598389 852.440430,740.688538 
	C852.128052,745.140320 852.304016,749.626343 852.317017,755.000977 
M175.386185,745.648376 
	C175.383224,744.158508 175.757065,742.529480 175.272446,741.217529 
	C174.777267,739.876770 173.439865,738.847168 172.471146,737.681335 
	C171.561493,738.900513 169.973373,740.063843 169.867432,741.349243 
	C169.528671,745.460083 169.884445,749.622681 169.696854,753.752808 
	C169.513245,757.795593 171.178223,758.800476 175.384995,757.207703 
	C175.384995,753.788086 175.384995,750.188171 175.386185,745.648376 
M899.187622,741.027466 
	C899.186462,745.347290 899.292664,749.670654 899.153625,753.986023 
	C899.015686,758.266541 901.041504,758.626709 904.795288,757.272034 
	C904.795288,751.695190 904.885681,746.235352 904.716553,740.783569 
	C904.683899,739.732727 903.634216,738.713440 903.053772,737.679688 
	C901.771912,738.509705 900.490051,739.339783 899.187622,741.027466 
M129.004440,739.884399 
	C127.909073,739.219971 126.813698,738.555542 125.718338,737.891174 
	C125.138916,738.929199 124.101372,739.948975 124.059196,741.008423 
	C123.874702,745.642639 123.838409,750.295898 124.086823,754.924072 
	C124.141991,755.951904 125.570236,756.906067 126.366249,757.894104 
	C127.267860,756.843018 128.878403,755.836426 128.947632,754.733154 
	C129.237778,750.109985 129.066055,745.457764 129.004440,739.884399 
M202.691803,750.510559 
	C202.762115,750.996399 202.806213,751.901672 202.906509,751.907898 
	C207.725800,752.209167 212.549255,752.464539 217.375626,752.569153 
	C217.611954,752.574280 218.182800,751.119080 218.041931,750.463257 
	C217.911728,749.857178 217.018646,748.950195 216.487823,748.967773 
	C211.952255,749.118347 207.422638,749.449341 202.691803,750.510559 
M700.395264,761.518250 
	C701.552246,760.038513 703.022827,758.692932 703.736389,757.023621 
	C704.104065,756.163513 703.367554,754.537292 702.656311,753.627380 
	C702.268616,753.131409 700.473999,752.996521 700.050049,753.425842 
	C699.242126,754.244019 698.542297,755.591614 698.564331,756.704285 
	C698.594849,758.242737 699.333923,759.767090 700.395264,761.518250 
z"/>
<path fill="#D7D7D7" opacity="1.000000" stroke="none" 
	d="
M3.500001,1.000000 
	C3.988949,159.601822 3.972597,318.203644 3.968275,476.805481 
	C3.963539,650.568054 3.969924,824.330566 3.985731,998.546570 
	C2.345619,998.951904 0.128297,999.621460 0.975728,996.493408 
	C1.143980,995.872314 1.000000,995.166687 1.000000,994.500000 
	C1.000000,664.833374 0.996080,335.166718 1.141276,5.500122 
	C1.141844,4.211102 -1.328424,0.872592 3.500001,1.000000 
z"/>
<path fill="#52A4D7" opacity="1.000000" stroke="none" 
	d="
M609.071228,459.793823 
	C611.054321,424.883026 612.963074,390.443024 615.051880,356.013977 
	C615.314758,351.681305 614.973083,348.147644 610.629211,345.994629 
	C609.484680,345.427368 608.249451,344.417084 607.739624,343.298553 
	C604.817261,336.887573 599.289001,336.786591 593.480591,336.992523 
	C573.675964,337.694733 553.851685,338.020874 534.070557,339.128693 
	C524.391968,339.670746 514.970154,342.268921 506.586853,347.530121 
	C498.670868,352.498077 494.167236,359.457397 494.721527,369.124359 
	C494.768280,369.939514 494.989319,370.755493 495.223389,371.543152 
	C495.302002,371.807617 495.672943,371.985229 495.386444,371.722900 
	C500.544403,370.104034 505.354004,368.672272 510.090576,367.029785 
	C510.860199,366.762878 511.369659,365.603485 511.892029,364.787903 
	C516.256775,357.973083 523.869934,355.334930 531.440369,358.042908 
	C538.157227,360.445557 541.726990,366.861603 540.851990,374.958588 
	C539.485535,387.604156 529.832886,397.423065 515.245728,400.020691 
	C510.193939,400.920288 504.847229,400.163879 497.995117,400.163879 
	C502.228302,392.524261 505.778534,386.117157 509.942322,378.602783 
	C508.002411,379.130493 505.821228,379.070648 504.823364,380.127777 
	C502.571014,382.513977 500.335541,385.215942 499.091858,388.204956 
	C491.865906,405.572205 484.754730,422.993011 478.028412,440.557953 
	C476.517883,444.502441 474.823578,446.261841 470.591614,445.844604 
	C467.213928,445.511597 463.777191,445.777405 459.599121,445.777405 
	C460.670197,442.415558 461.219391,440.004639 462.184723,437.773834 
	C468.269043,423.714081 474.383820,409.666534 480.651215,395.687897 
	C481.730316,393.281128 481.903076,391.691254 480.008301,389.493835 
	C465.959351,373.200745 466.909210,350.335205 482.025787,334.724365 
	C492.980316,323.411682 507.025848,318.507507 521.918945,315.511627 
	C547.061157,310.454041 572.561584,309.948425 598.081787,310.100708 
	C601.730774,310.122467 604.312988,309.403961 606.408081,306.123566 
	C607.882385,303.815247 610.073730,301.358215 612.510681,300.386566 
	C619.499451,297.600006 618.738770,291.709259 618.714172,286.250305 
	C618.708252,284.932281 616.630798,283.208801 615.118103,282.378693 
	C604.162781,276.367188 598.399292,267.049011 598.479919,254.737854 
	C598.558350,242.769989 604.434204,233.772369 615.129395,228.239319 
	C629.897888,220.599030 647.636414,226.160141 655.543457,240.759720 
	C663.554260,255.551041 658.305603,273.621704 643.619080,281.814514 
	C637.282104,285.349579 637.161804,294.808167 643.264282,298.935333 
	C645.862305,300.692352 648.826965,302.493195 650.412720,305.031464 
	C653.193176,309.482330 656.742615,310.596161 661.651489,310.412476 
	C683.438660,309.597290 705.234985,309.026947 727.028259,308.376373 
	C730.858948,308.262024 733.134033,306.368134 735.328125,303.112274 
	C738.829834,297.916016 743.152222,293.240112 747.390808,288.583801 
	C750.573669,285.087280 754.612427,283.425995 759.556702,284.166321 
	C760.565247,284.317322 762.452881,283.283722 762.803955,282.364197 
	C764.803467,277.127533 761.330688,268.533295 756.042114,266.716888 
	C753.545410,265.859406 750.082336,266.234375 747.683289,267.371643 
	C746.561768,267.903290 746.313110,271.690033 746.725098,273.794769 
	C748.402283,282.362152 744.007446,289.116791 735.359497,290.618591 
	C725.743835,292.288483 717.736938,286.941589 716.882507,277.837128 
	C716.009460,268.535004 719.531799,260.634613 726.767456,254.966217 
	C740.537415,244.178986 760.502930,244.082718 773.311401,254.225693 
	C787.034058,265.092651 791.546204,283.897308 784.367554,300.302917 
	C777.701599,315.536713 759.638977,328.619293 742.145691,330.176941 
	C744.745056,324.016571 746.935486,318.193787 749.630554,312.614716 
	C752.352600,306.979645 755.574890,301.586182 758.055481,294.840057 
	C756.432739,295.622864 754.287842,295.996582 753.290649,297.269409 
	C750.845093,300.391174 748.381287,303.703217 746.893066,307.335419 
	C740.012268,324.128265 733.301086,340.996002 726.916565,357.982544 
	C725.481995,361.799164 723.726929,363.300415 719.759155,362.944275 
	C716.358398,362.638977 712.908508,362.881012 708.388977,362.881012 
	C711.941345,353.381317 715.110535,344.906189 718.622437,335.514648 
	C716.435730,335.514648 715.043274,335.471039 713.654297,335.521240 
	C695.674561,336.171356 677.697632,336.914886 659.713989,337.424164 
	C656.310852,337.520477 653.492371,337.835144 651.847656,341.276581 
	C651.367065,342.282135 650.473083,343.302673 649.503967,343.828278 
	C642.379028,347.692474 642.605957,353.982880 643.021973,360.906433 
	C645.920166,409.143890 648.624695,457.393341 651.201294,505.649139 
	C651.451599,510.335846 653.096069,512.485229 657.602051,514.060364 
	C677.449951,520.998230 692.305725,534.097534 702.769836,552.253967 
	C703.580139,553.659973 704.202087,555.174622 705.247375,557.331787 
	C654.126221,557.331787 603.677673,557.331787 551.549255,557.331787 
	C555.799988,551.016663 559.064270,545.270081 563.184448,540.222107 
	C573.523315,527.555115 586.382996,518.270325 602.125854,513.371277 
	C605.171021,512.423645 606.185791,510.820526 606.338379,507.679657 
	C607.106567,491.869141 608.122925,476.070679 609.071228,459.793823 
M640.823669,318.074005 
	C637.632385,312.309357 632.792236,309.827789 626.267395,310.923584 
	C621.164551,311.780548 616.875854,316.109009 615.906982,321.182434 
	C614.852417,326.704102 617.104370,332.247589 621.576172,335.138000 
	C626.284241,338.181122 632.674805,337.940674 637.060120,334.555298 
	C641.700928,330.972717 643.100952,325.560455 640.823669,318.074005 
z"/>
<path fill="#52A4D6" opacity="1.000000" stroke="none" 
	d="
M478.665649,496.278625 
	C462.580261,486.020142 453.314514,471.915863 450.936951,452.731079 
	C489.207977,452.731079 526.723022,452.731079 564.930908,452.731079 
	C562.633118,471.759247 553.712952,486.182434 537.879089,495.757233 
	C518.609924,507.409424 498.743561,507.193054 478.665649,496.278625 
z"/>
<path fill="#52A4D7" opacity="1.000000" stroke="none" 
	d="
M784.000000,369.206543 
	C792.829468,369.201385 801.161133,369.309296 809.487427,369.145966 
	C813.007385,369.076935 814.165283,370.128571 813.641907,373.805084 
	C808.249451,411.687378 761.968750,433.583191 728.951355,413.799927 
	C714.855103,405.353790 705.424805,393.383514 701.453125,377.326935 
	C700.867432,374.959259 700.648376,372.500916 700.119019,369.209961 
	C728.330933,369.209961 755.915466,369.209961 784.000000,369.206543 
z"/>
<path fill="#51A3D4" opacity="1.000000" stroke="none" 
	d="
M595.435059,636.356689 
	C597.537231,633.115784 599.890015,630.371338 601.247864,627.200867 
	C603.783936,621.279297 608.126038,619.843506 614.027283,620.469666 
	C617.604797,620.849365 621.255432,620.539673 625.922546,620.539673 
	C624.671326,622.812866 623.997009,624.223694 623.159424,625.529724 
	C617.670898,634.087036 612.250061,642.691040 606.576538,651.124695 
	C604.696289,653.919800 604.797668,656.070984 606.628418,658.799255 
	C612.106567,666.963135 617.372986,675.269348 622.698181,683.535278 
	C623.567200,684.884216 624.315308,686.311035 625.655457,688.629272 
	C618.703979,688.629272 612.623474,688.808472 606.570740,688.478088 
	C605.359924,688.411926 604.023926,686.560242 603.142090,685.262451 
	C599.607971,680.061035 596.229797,674.753662 592.167053,668.524231 
	C588.332642,674.370361 584.836060,679.349548 581.734497,684.563721 
	C579.908325,687.633911 577.749817,689.036011 574.098572,688.813354 
	C569.324463,688.522278 564.519104,688.742004 558.644226,688.742004 
	C559.816345,686.499634 560.428833,685.078308 561.252625,683.792358 
	C566.466736,675.653137 571.585510,667.446655 577.042542,659.472290 
	C579.237305,656.265076 579.435059,653.813965 577.167358,650.514648 
	C571.599976,642.414307 566.404541,634.057983 561.079956,625.791443 
	C560.221130,624.458069 559.467346,623.056946 558.067810,620.667664 
	C565.266968,620.667664 571.360657,620.485107 577.425476,620.822144 
	C578.634033,620.889282 579.954651,622.793152 580.842346,624.107544 
	C584.453857,629.455139 587.917053,634.902832 591.898499,641.026733 
	C593.338989,639.142944 594.287842,637.901978 595.435059,636.356689 
z"/>
<path fill="#51A3D5" opacity="1.000000" stroke="none" 
	d="
M747.153442,638.887573 
	C748.890747,634.146484 750.493530,629.771667 752.099121,625.397827 
	C752.385864,624.616821 752.474060,623.393616 753.013916,623.139587 
	C755.198669,622.111389 757.629456,620.479736 759.775574,620.730408 
	C764.229431,621.250732 770.685913,617.520142 772.896179,623.167786 
	C781.197510,644.378906 788.644836,665.924255 796.397949,687.349487 
	C796.437561,687.459045 796.273926,687.642151 795.837769,688.586426 
	C790.843506,688.586426 785.419312,688.910767 780.087219,688.353516 
	C778.789062,688.217773 777.228149,685.324158 776.767578,683.457031 
	C775.503540,678.332275 772.641052,676.214661 767.425415,677.068909 
	C765.966919,677.307861 764.411438,677.281006 762.942444,677.075684 
	C755.575317,676.045898 749.844971,677.379333 748.426392,686.086914 
	C748.261780,687.097412 746.435974,688.517151 745.318604,688.575989 
	C740.229675,688.844177 735.118652,688.693604 728.991394,688.693604 
	C735.216919,671.621521 741.118408,655.437866 747.153442,638.887573 
M758.366272,659.476013 
	C761.328674,660.062988 764.291016,660.650024 767.253418,661.237000 
	C767.555664,660.752747 767.857910,660.268494 768.160095,659.784241 
	C766.703430,655.779297 765.246704,651.774292 763.789978,647.769348 
	C763.331238,647.772400 762.872559,647.775391 762.413818,647.778442 
	C761.075195,651.420837 759.736572,655.063171 758.366272,659.476013 
z"/>
<path fill="#51A3D5" opacity="1.000000" stroke="none" 
	d="
M494.817902,686.208496 
	C494.775604,665.794983 494.867920,645.811646 494.670746,625.831177 
	C494.629639,621.665649 495.926056,620.367310 500.064972,620.459778 
	C511.049866,620.705200 522.045715,620.658691 533.033142,620.479309 
	C536.647400,620.420349 537.982422,621.444031 537.989441,625.265381 
	C538.010803,636.932312 538.167175,636.930298 526.495911,636.932983 
	C522.832520,636.933838 519.166321,637.037598 515.506592,636.925659 
	C512.461609,636.832458 511.936829,638.544922 511.988983,641.055054 
	C512.040100,643.514709 511.946533,645.806824 515.466980,645.747986 
	C520.793945,645.658936 526.126465,645.846313 531.451233,645.708008 
	C534.406860,645.631226 535.662964,646.638733 535.605713,649.724609 
	C535.323792,664.928162 537.289856,661.598938 524.210205,661.991150 
	C522.213745,662.051086 520.213928,661.993103 518.215698,662.000854 
	C511.930359,662.025330 511.811432,662.295471 511.957703,668.427368 
	C512.029602,671.440125 513.168274,672.573181 516.125977,672.519592 
	C522.118591,672.410889 528.118286,672.621582 534.108093,672.453125 
	C537.367737,672.361511 538.512024,673.581604 538.441528,676.822083 
	C538.126953,691.291809 540.237305,688.485352 527.215698,688.709900 
	C518.059814,688.867798 508.896759,688.842224 499.742371,688.644836 
	C498.097809,688.609436 496.479889,687.339539 494.817902,686.208496 
z"/>
<path fill="#51A3D4" opacity="1.000000" stroke="none" 
	d="
M448.000854,688.742126 
	C442.837952,688.741089 438.170868,688.622925 433.513123,688.780884 
	C430.443665,688.885010 428.983154,688.038025 429.002869,684.607971 
	C429.117676,664.623901 429.096680,644.638550 429.016602,624.654175 
	C429.004730,621.687744 430.010986,620.615540 433.048767,620.480103 
	C446.317902,619.888794 446.313629,619.802063 446.314178,632.862183 
	C446.314667,644.353394 446.436523,655.846558 446.249908,667.334717 
	C446.187378,671.183533 447.380157,672.737366 451.364258,672.557739 
	C457.014954,672.302979 462.688385,672.599060 468.347412,672.463623 
	C471.364441,672.391418 472.490509,673.557800 472.429901,676.571838 
	C472.129639,691.502075 474.370453,688.385620 460.990723,688.726013 
	C456.829926,688.831909 452.664124,688.742371 448.000854,688.742126 
z"/>
<path fill="#51A3D4" opacity="1.000000" stroke="none" 
	d="
M661.580322,620.577515 
	C665.169739,620.216003 666.481750,621.424500 666.463196,624.773132 
	C666.352539,644.743103 666.365601,664.714233 666.447510,684.684448 
	C666.459900,687.701660 665.363831,688.652405 662.368774,688.773804 
	C649.061890,689.312927 649.065430,689.400208 649.065430,675.981567 
	C649.065430,659.505859 649.244568,643.026917 648.955200,626.556335 
	C648.869507,621.679871 650.377197,619.868958 655.151611,620.498962 
	C657.115906,620.758118 659.140259,620.562195 661.580322,620.577515 
z"/>
<path fill="#51A3D4" opacity="1.000000" stroke="none" 
	d="
M831.614746,688.739746 
	C818.985840,688.746460 818.985657,688.746460 818.985901,676.374268 
	C818.986206,659.408875 819.063354,642.442810 818.925171,625.478516 
	C818.896240,621.934998 819.794006,620.492554 823.641907,620.455811 
	C836.269592,620.335388 836.268616,620.190430 836.268127,632.971619 
	C836.267517,649.937012 836.224060,666.902588 836.303894,683.867615 
	C836.318359,686.946045 835.932678,689.242737 831.614746,688.739746 
z"/>
<path fill="#50A1D2" opacity="1.000000" stroke="none" 
	d="
M802.709717,353.977234 
	C803.704163,356.837738 804.564880,359.337311 805.793579,362.905457 
	C800.274963,362.905457 795.404114,363.080322 790.566589,362.756622 
	C789.608826,362.692505 788.419006,360.848724 787.946289,359.595490 
	C783.418823,347.592590 778.962219,335.561523 774.679993,323.469635 
	C774.241821,322.232330 774.590149,320.156250 775.407776,319.141541 
	C777.680481,316.320984 780.393005,313.854736 783.436340,310.730377 
	C791.583313,324.804382 797.143860,339.180939 802.709717,353.977234 
z"/>
<path fill="#50A1D2" opacity="1.000000" stroke="none" 
	d="
M553.449707,437.241943 
	C554.464661,440.056641 555.348938,442.512054 556.510803,445.737976 
	C551.083435,445.737976 546.466431,445.944611 541.891846,445.595612 
	C540.718933,445.506104 539.146057,443.865265 538.662354,442.592926 
	C533.991821,430.307678 529.442810,417.974060 525.101746,405.569336 
	C524.699402,404.419495 525.533386,402.127380 526.549561,401.331879 
	C529.004028,399.410583 531.906311,398.061340 535.262390,396.113220 
	C542.878967,409.038025 547.935242,423.036041 553.449707,437.241943 
z"/>
<path fill="#4E9ECE" opacity="1.000000" stroke="none" 
	d="
M308.729828,751.596558 
	C305.424103,749.289734 306.268402,752.583984 305.793365,753.589966 
	C304.829285,755.631592 304.811005,758.532166 301.473053,757.879639 
	C300.256226,757.641785 298.515350,756.739319 298.204926,755.761719 
	C296.402466,750.085632 294.955078,744.296814 293.352844,738.418335 
	C301.261932,735.522156 298.871979,743.141296 301.448914,745.498291 
	C305.031555,744.116699 301.996002,737.703247 307.419830,737.661133 
	C313.083374,737.617188 310.317596,743.736206 313.476196,745.591187 
	C316.403229,743.658203 313.619904,735.735596 321.655029,738.305664 
	C320.077637,744.216248 318.632446,750.126709 316.820465,755.922424 
	C316.526489,756.862793 314.592987,757.836975 313.441620,757.808594 
	C312.301147,757.780457 310.910004,756.718323 310.147614,755.715393 
	C309.390015,754.718628 309.278198,753.231079 308.729828,751.596558 
z"/>
<path fill="#4E9DCC" opacity="1.000000" stroke="none" 
	d="
M470.006439,738.461548 
	C470.338165,743.896851 470.539490,749.034180 470.445526,754.166077 
	C470.422882,755.402588 469.438690,757.638000 468.867950,757.647217 
	C467.456818,757.670227 465.710632,756.998230 464.683655,756.002625 
	C463.205536,754.569641 462.245575,752.602234 460.222382,749.622803 
	C459.544586,753.143616 459.139801,755.246338 458.676849,757.651123 
	C457.300598,757.651123 455.888275,757.651123 453.743835,757.651123 
	C453.743835,751.642029 453.686829,745.739624 453.819031,739.841553 
	C453.834808,739.137085 454.916718,737.847168 455.442047,737.878418 
	C456.976379,737.969482 458.741058,738.234314 459.925323,739.100830 
	C461.284271,740.095337 462.117767,741.807922 463.753326,743.965454 
	C464.481903,741.424805 464.944946,739.810181 465.547302,737.709656 
	C466.950928,737.859985 468.359253,738.010803 470.006439,738.461548 
z"/>
<path fill="#4E9DCC" opacity="1.000000" stroke="none" 
	d="
M1101.794434,740.040649 
	C1102.006958,744.144714 1101.088379,744.486145 1097.165894,743.775757 
	C1095.263672,743.431213 1092.431519,743.997986 1091.236450,745.283142 
	C1090.244629,746.349854 1091.033447,749.072388 1091.817871,751.490051 
	C1093.357056,746.146729 1096.934937,745.876648 1101.095703,746.260559 
	C1105.206543,746.639893 1106.228149,748.118835 1104.585938,752.043152 
	C1102.665283,756.632629 1097.314209,759.170166 1092.150391,757.940125 
	C1087.532593,756.840210 1084.268433,752.536011 1084.355225,747.661316 
	C1084.442871,742.739441 1088.187622,738.057312 1093.132690,737.811768 
	C1095.898560,737.674500 1098.741089,739.081238 1101.794434,740.040649 
z"/>
<path fill="#4E9DCC" opacity="1.000000" stroke="none" 
	d="
M765.093018,756.444153 
	C763.458496,757.250366 761.905273,757.684570 759.736084,758.290833 
	C759.736084,751.705139 759.687866,746.091370 759.787781,740.480286 
	C759.802856,739.632629 760.559326,738.047729 760.886414,738.070068 
	C764.902527,738.344299 769.320862,737.949768 772.791443,739.553772 
	C776.396973,741.220276 775.402161,745.094727 774.371887,748.785217 
	C773.655334,751.351929 775.043152,754.506165 775.512634,757.538818 
	C770.486389,760.093933 769.253662,755.076294 766.106873,751.488831 
	C765.683533,753.569214 765.428833,754.820679 765.093018,756.444153 
z"/>
<path fill="#4E9DCC" opacity="1.000000" stroke="none" 
	d="
M527.247803,738.012573 
	C528.008118,740.243835 528.441040,742.306580 528.931152,744.642090 
	C530.905334,744.642090 532.821472,744.642090 535.093079,744.642090 
	C535.249939,743.014954 535.059937,741.422302 535.629578,740.177124 
	C536.105408,739.137024 537.388123,738.062256 538.473572,737.859253 
	C539.104614,737.741333 540.718750,739.287659 540.748474,740.125610 
	C540.952942,745.892456 540.855957,751.669922 540.855957,757.632690 
	C538.831421,757.632690 537.434998,757.632690 535.889832,757.632690 
	C535.589172,755.094666 535.322510,752.843445 535.067261,750.689148 
	C529.213135,749.673645 529.213135,749.673645 527.643738,757.453247 
	C524.081177,758.801147 522.396606,757.801758 522.584106,753.743896 
	C522.767944,749.765015 522.765320,745.764404 522.581116,741.785583 
	C522.429138,738.502014 523.560181,737.054688 527.247803,738.012573 
z"/>
<path fill="#4E9DCC" opacity="1.000000" stroke="none" 
	d="
M1069.686035,756.757324 
	C1063.637573,759.169922 1058.879028,758.343140 1055.936401,754.341492 
	C1053.121826,750.514099 1052.771362,746.369751 1055.438721,742.301453 
	C1058.223877,738.053589 1062.547729,736.191650 1067.028198,738.135742 
	C1069.972168,739.413147 1072.907593,742.446716 1074.188477,745.410400 
	C1076.074951,749.775635 1073.894409,753.763794 1069.686035,756.757324 
M1060.977661,751.577332 
	C1065.127441,753.461121 1068.397583,752.671021 1068.775391,749.254822 
	C1068.971924,747.479797 1067.986084,744.879272 1066.626343,743.843567 
	C1065.509644,742.992920 1062.664551,743.287170 1061.272217,744.164307 
	C1058.645386,745.818970 1058.465698,748.464661 1060.977661,751.577332 
z"/>
<path fill="#4E9DCC" opacity="1.000000" stroke="none" 
	d="
M109.956253,743.222046 
	C107.777367,746.739807 107.777367,746.739807 112.336525,757.078796 
	C107.781586,758.504700 107.781586,758.504700 103.326157,753.588623 
	C100.494278,755.439575 98.525879,759.888611 93.077316,757.034180 
	C99.440414,751.090820 99.830330,744.702393 92.576286,738.364868 
	C93.193192,737.906616 93.810097,737.448364 94.427002,736.990173 
	C97.375641,738.325317 100.324287,739.660522 103.281395,740.999573 
	C105.675774,739.818726 108.628006,738.362793 111.580238,736.906799 
	C111.973778,737.427124 112.367317,737.947449 112.760864,738.467712 
	C111.892410,739.946899 111.023956,741.426025 109.956253,743.222046 
z"/>
<path fill="#4E9ECE" opacity="1.000000" stroke="none" 
	d="
M435.254272,737.798096 
	C441.980072,740.421509 444.616730,744.872742 443.140198,750.544739 
	C441.836182,755.554138 437.088745,758.724365 431.759583,758.144409 
	C426.439789,757.565552 422.671570,753.445435 422.556549,748.082214 
	C422.415894,741.522522 427.330902,737.395996 435.254272,737.798096 
M434.862030,752.518005 
	C435.800995,750.451782 437.291748,748.423584 437.438019,746.302673 
	C437.507568,745.294373 435.150848,743.451965 433.654358,743.142517 
	C430.621368,742.515320 428.302460,744.201843 428.132721,747.366516 
	C427.922729,751.281921 430.209625,753.091736 434.862030,752.518005 
z"/>
<path fill="#4E9DCC" opacity="1.000000" stroke="none" 
	d="
M145.109512,741.913025 
	C146.838379,740.262085 148.364594,738.097351 150.058533,737.957031 
	C151.297531,737.854309 153.307266,740.177368 154.015289,741.829773 
	C156.149323,746.810059 157.815186,751.991028 159.663605,757.093750 
	C159.343582,757.521362 159.023544,757.948975 158.703522,758.376587 
	C156.851990,757.597473 155.061676,756.465637 153.133011,756.130920 
	C150.855423,755.735596 148.401077,755.713318 146.130875,756.123901 
	C144.296661,756.455627 142.621979,757.669250 140.876526,758.491699 
	C140.434052,758.116638 139.991577,757.741638 139.549088,757.366638 
	C141.358978,752.333435 143.168869,747.300232 145.109512,741.913025 
z"/>
<path fill="#4E9DCC" opacity="1.000000" stroke="none" 
	d="
M731.410034,753.124878 
	C733.089844,748.552673 734.445374,744.258911 736.272705,740.176453 
	C736.789185,739.022522 738.674133,737.864197 739.951721,737.841370 
	C741.228943,737.818542 743.237244,738.920227 743.703979,740.038513 
	C746.048889,745.657104 747.993835,751.442627 750.079285,757.169495 
	C749.797546,757.578918 749.515747,757.988342 749.234009,758.397766 
	C747.364990,757.630920 745.555542,756.534790 743.611389,756.182861 
	C741.314209,755.766968 738.842163,755.655823 736.556030,756.050476 
	C734.745544,756.362976 733.101135,757.637756 730.009460,759.162842 
	C730.671326,756.167847 730.967957,754.825684 731.410034,753.124878 
z"/>
<path fill="#4E9DCC" opacity="1.000000" stroke="none" 
	d="
M1176.088623,757.903076 
	C1172.502197,755.012146 1169.424438,752.229675 1165.520142,757.205139 
	C1164.819702,758.097778 1162.556763,757.764160 1159.710571,758.193542 
	C1162.263184,751.225098 1164.243896,745.162903 1166.730103,739.315735 
	C1167.916138,736.526550 1172.616943,736.964478 1173.819946,739.933838 
	C1176.107422,745.580811 1178.082642,751.354431 1180.343750,757.500488 
	C1178.655029,757.694946 1177.560303,757.820984 1176.088623,757.903076 
z"/>
<path fill="#4E9DCC" opacity="1.000000" stroke="none" 
	d="
M249.302155,757.341064 
	C247.566345,757.744080 246.112976,757.874023 243.391403,758.117188 
	C245.921310,751.268677 247.968292,745.072632 250.532364,739.098572 
	C251.604706,736.600098 256.309296,737.054626 257.384247,739.715637 
	C259.671051,745.376953 261.630585,751.170410 262.967529,758.199646 
	C261.126160,757.533142 259.023041,757.228210 257.498291,756.124390 
	C254.386932,753.872009 251.875366,753.800842 249.302155,757.341064 
z"/>
<path fill="#4E9ECE" opacity="1.000000" stroke="none" 
	d="
M919.498169,757.628662 
	C917.711304,757.801636 916.282227,757.801636 914.126709,757.801636 
	C916.487244,751.365784 918.451477,745.564331 920.821838,739.933899 
	C921.282104,738.840759 923.300049,737.905701 924.646667,737.838196 
	C925.758972,737.782349 927.568359,738.857300 927.987915,739.876282 
	C930.318848,745.537598 932.319763,751.334717 934.992188,758.604919 
	C931.955017,757.672302 929.717468,757.605164 928.419922,756.466736 
	C924.968811,753.438721 922.338135,753.887817 919.498169,757.628662 
z"/>
<path fill="#4E9ECE" opacity="1.000000" stroke="none" 
	d="
M621.434998,754.055176 
	C623.170471,749.324402 624.581604,744.860413 626.491638,740.621216 
	C627.076477,739.323059 629.026917,737.894348 630.357239,737.889221 
	C631.667358,737.884216 633.636169,739.331177 634.184448,740.621704 
	C636.497925,746.067566 638.388855,751.692932 640.434387,757.252625 
	C640.059265,757.681824 639.684204,758.111084 639.309143,758.540283 
	C637.499207,757.653931 635.767517,756.340942 633.859253,755.991333 
	C631.571655,755.572083 629.075806,755.674805 626.778931,756.117065 
	C624.963440,756.466553 623.312500,757.670471 620.547363,758.992737 
	C620.954773,756.519592 621.128662,755.463989 621.434998,754.055176 
z"/>
<path fill="#4E9ECE" opacity="1.000000" stroke="none" 
	d="
M331.228821,746.984863 
	C332.161865,744.439819 332.704254,742.096558 333.889648,740.143738 
	C334.583984,738.999878 336.307617,737.845642 337.560425,737.854065 
	C338.820862,737.862427 340.733917,739.027039 341.214142,740.167847 
	C343.522888,745.652161 345.443665,751.299866 346.781006,758.184937 
	C344.947021,757.533630 342.787292,757.290283 341.349701,756.142456 
	C338.695435,754.023438 336.513885,754.202820 333.891937,756.046326 
	C332.357544,757.125122 330.452698,757.677185 328.714539,758.466187 
	C328.322510,758.100586 327.930511,757.734924 327.538513,757.369324 
	C328.728424,754.029785 329.918335,750.690186 331.228821,746.984863 
z"/>
<path fill="#4E9DCC" opacity="1.000000" stroke="none" 
	d="
M394.132874,747.668335 
	C396.922241,752.130737 396.475769,755.197754 393.045074,757.194092 
	C388.747467,759.694885 383.641296,758.179016 380.870667,753.579590 
	C383.033417,748.937256 386.567474,753.174561 390.431702,752.299377 
	C385.834564,748.276367 375.784332,746.377808 384.370972,738.437317 
	C387.541718,735.505249 392.405823,737.395447 395.255890,741.911560 
	C394.050934,742.889832 392.815918,743.892456 391.193268,745.209778 
	C392.211639,746.051086 393.040802,746.736084 394.132874,747.668335 
z"/>
<path fill="#4E9DCC" opacity="1.000000" stroke="none" 
	d="
M603.017761,737.502563 
	C607.072144,737.795837 610.078918,739.117249 611.839478,742.782532 
	C609.836914,744.983154 608.172241,745.569702 605.321472,743.991394 
	C603.892334,743.200073 600.402039,743.830872 599.478027,745.053467 
	C598.490051,746.360840 598.652222,749.808228 599.750244,751.046753 
	C600.752014,752.176758 603.676636,751.718689 605.756287,751.742493 
	C607.692383,751.764709 609.631775,751.499512 612.312866,751.307678 
	C609.227966,757.401123 605.405457,759.160095 600.219421,757.941467 
	C595.398376,756.808472 592.088928,752.259888 592.397766,747.191040 
	C592.713562,742.008240 596.298889,738.614746 603.017761,737.502563 
z"/>
<path fill="#4E9ECE" opacity="1.000000" stroke="none" 
	d="
M873.964600,738.832642 
	C881.040222,736.434326 884.662292,737.565125 888.349121,744.028015 
	C885.769592,744.028015 883.826477,743.909973 881.904114,744.059082 
	C879.690491,744.230835 877.005554,744.001038 875.471924,745.178528 
	C874.521667,745.908203 874.556641,749.944946 875.530762,750.689209 
	C877.045227,751.846375 879.729858,751.590271 881.929932,751.696472 
	C883.856262,751.789368 885.798340,751.556213 888.597900,751.427307 
	C885.830261,757.287354 882.180908,758.577515 877.714355,758.109497 
	C873.086487,757.624634 870.065491,754.952820 868.889709,750.533752 
	C867.580200,745.612366 869.465393,741.787659 873.964600,738.832642 
z"/>
<path fill="#4E9DCC" opacity="1.000000" stroke="none" 
	d="
M1151.012451,754.291870 
	C1145.486694,759.193176 1139.548218,759.456848 1135.267334,755.260742 
	C1131.419434,751.489075 1131.153687,745.343811 1134.661133,741.245728 
	C1139.389282,735.721436 1147.157715,736.345032 1151.555054,742.740112 
	C1149.827393,745.091187 1148.062378,745.307556 1145.227417,744.020081 
	C1143.612915,743.286926 1140.253662,743.762146 1139.279175,744.976501 
	C1138.257690,746.249512 1138.359863,749.730652 1139.438232,750.995667 
	C1140.414062,752.140137 1143.711670,752.372070 1145.377197,751.633972 
	C1148.596191,750.207397 1150.529175,750.042053 1151.012451,754.291870 
z"/>
<path fill="#4E9ECE" opacity="1.000000" stroke="none" 
	d="
M661.798218,743.232056 
	C660.856262,743.890442 660.214172,744.366333 660.571533,744.101440 
	C661.803223,747.887207 663.620361,751.048157 663.486023,754.123901 
	C663.422668,755.573853 659.764221,757.568298 657.466919,758.057312 
	C653.872375,758.822205 650.563904,757.583923 648.902222,753.382568 
	C650.197815,752.379333 651.476257,751.389343 653.160217,750.085449 
	C652.393494,749.110107 651.176575,748.229126 650.960083,747.147888 
	C650.509766,744.898132 649.630127,741.809509 650.694580,740.416077 
	C652.017395,738.684570 655.192383,737.452332 657.446289,737.621155 
	C659.453613,737.771606 661.295776,740.125671 663.210815,741.507202 
	C662.839844,742.021362 662.468933,742.535400 661.798218,743.232056 
M657.361145,744.439697 
	C657.294373,744.053711 657.242859,743.663635 657.140442,743.287354 
	C657.128601,743.243774 656.834656,743.276978 656.671570,743.274536 
	C656.670654,743.657288 656.669739,744.040100 657.361145,744.439697 
z"/>
<path fill="#4E9ECE" opacity="1.000000" stroke="none" 
	d="
M560.805359,757.971741 
	C558.057007,757.971802 555.753296,757.971802 552.796021,757.971802 
	C552.796021,751.692993 552.672668,745.903503 552.929932,740.130920 
	C552.968201,739.271851 554.712769,737.965393 555.816956,737.786743 
	C558.090698,737.418762 560.503845,737.424133 562.781372,737.778809 
	C563.883545,737.950439 564.808716,739.258667 565.814026,740.052307 
	C564.765625,740.980042 563.834595,742.130920 562.631226,742.763977 
	C561.689514,743.259338 560.410095,743.112671 559.052063,743.279358 
	C560.029175,746.633240 566.316467,743.095703 564.981262,747.854065 
	C564.538757,749.430725 561.125427,750.173706 558.448364,751.638062 
	C559.586792,752.130859 560.422791,752.625000 561.326050,752.856018 
	C563.158142,753.324707 566.133606,751.771301 566.085571,755.461548 
	C566.038025,759.111450 563.119812,757.617615 560.805359,757.971741 
z"/>
<path fill="#4E9ECE" opacity="1.000000" stroke="none" 
	d="
M687.200134,738.646973 
	C688.436340,744.894592 683.044067,741.753845 681.110107,743.461853 
	C683.011169,744.861206 684.914978,746.258301 686.818787,747.655396 
	C684.745178,748.947998 682.671570,750.240540 679.483521,752.227722 
	C681.972656,752.543335 683.569153,752.455200 684.902100,753.005676 
	C685.986877,753.453613 686.755859,754.666260 687.664917,755.539795 
	C686.678894,756.346497 685.752014,757.742737 684.695557,757.848816 
	C681.591248,758.160461 678.435547,757.959839 674.869751,757.959839 
	C674.869751,751.209839 674.869751,744.842102 674.869751,737.533325 
	C678.982239,737.793945 683.006653,738.048950 687.200134,738.646973 
z"/>
<path fill="#4E9DCC" opacity="1.000000" stroke="none" 
	d="
M83.154968,756.669800 
	C79.036247,757.470764 75.036308,757.891846 70.558441,758.363281 
	C70.558441,751.170349 70.558441,744.787415 70.558441,738.021362 
	C74.545868,738.021362 78.458984,738.021362 82.859108,738.021362 
	C82.973869,739.328918 83.093445,740.691223 83.239822,742.358887 
	C80.687759,742.719360 78.538162,743.022949 76.422241,743.321838 
	C78.604942,744.875488 80.551796,746.261292 82.498650,747.647095 
	C80.554276,748.895813 78.609894,750.144531 76.430389,751.544250 
	C77.248779,754.927063 84.306038,750.255249 83.154968,756.669800 
z"/>
<path fill="#4A96C3" opacity="1.000000" stroke="none" 
	d="
M827.963867,748.909485 
	C827.964905,747.778137 827.953064,747.114136 827.966431,746.450684 
	C828.163452,736.633728 826.219543,737.576233 837.071350,737.707520 
	C838.503540,737.724792 839.916138,739.363892 841.337769,740.251892 
	C840.071411,741.139587 838.858337,742.121826 837.517578,742.877563 
	C836.777832,743.294495 835.823669,743.330994 834.932434,744.409241 
	C835.909180,744.682495 837.010620,744.757874 837.832947,745.276062 
	C839.013855,746.020264 839.991333,747.087280 841.055603,748.016541 
	C839.924316,748.883850 838.749573,749.700928 837.673035,750.631470 
	C836.401123,751.730957 835.148010,752.867676 834.008850,754.100952 
	C832.882141,755.320740 832.054504,757.609131 830.837952,757.801819 
	C827.463318,758.336365 828.103149,755.397095 827.981201,753.358765 
	C827.902039,752.035889 827.964050,750.704590 827.963867,748.909485 
z"/>
<path fill="#4A96C3" opacity="1.000000" stroke="none" 
	d="
M799.244385,742.682312 
	C797.901794,744.076233 796.377686,745.241272 796.151428,746.619385 
	C795.699280,749.373962 796.242859,752.292542 795.784668,755.045105 
	C795.599426,756.157776 793.877625,757.753052 792.835999,757.767578 
	C791.881104,757.781128 790.322632,756.092529 790.058533,754.921814 
	C789.594666,752.865479 789.949036,750.631348 789.900085,748.472961 
	C789.842224,745.923340 790.614075,742.967163 786.497559,742.542480 
	C785.908569,742.481628 785.121033,740.439941 785.192200,739.365845 
	C785.234314,738.732117 786.755005,737.760803 787.662354,737.698914 
	C790.804138,737.484924 793.968628,737.600891 797.124451,737.594971 
	C801.218567,737.587341 801.732300,739.407776 799.244385,742.682312 
z"/>
<path fill="#4E9DCC" opacity="1.000000" stroke="none" 
	d="
M990.983398,747.314941 
	C989.338440,744.226379 987.870544,741.479126 986.280579,738.503418 
	C991.356812,736.028137 993.348633,739.439209 995.286255,742.992920 
	C998.550110,741.166809 999.480225,735.413330 1004.775391,738.317749 
	C1002.260193,744.435425 999.692505,750.680908 996.723328,757.902832 
	C994.940491,758.489136 993.077209,758.236328 993.004883,754.187622 
	C992.965881,752.000183 991.811646,749.832642 990.983398,747.314941 
z"/>
<path fill="#4E9DCC" opacity="1.000000" stroke="none" 
	d="
M368.886841,745.122437 
	C367.278015,749.257812 365.855194,753.057251 364.093353,757.761841 
	C362.286102,758.307739 360.556793,758.530579 359.941681,754.400208 
	C359.379547,750.625732 357.348114,747.056458 355.859802,743.439636 
	C355.181580,741.791382 354.252106,740.246460 353.394104,738.571716 
	C358.961914,735.504272 360.258087,740.439880 362.758484,743.384766 
	C365.435883,740.931885 366.311310,735.622375 372.135071,738.435364 
	C371.136627,740.506165 370.104706,742.646301 368.886841,745.122437 
z"/>
<path fill="#4A96C3" opacity="1.000000" stroke="none" 
	d="
M507.796387,745.395508 
	C507.735657,748.989258 507.921143,752.155212 507.562744,755.258301 
	C507.448151,756.250427 505.712921,757.931213 505.036560,757.788940 
	C503.854767,757.540222 502.288055,756.277222 502.016876,755.163147 
	C501.522247,753.131104 501.888153,750.896545 501.836761,748.747864 
	C501.772552,746.063904 502.640991,742.884644 498.251984,742.530640 
	C497.732910,742.488831 496.785126,740.515625 497.047455,739.818115 
	C497.396667,738.889648 498.694794,737.794067 499.660919,737.716919 
	C502.947601,737.454407 506.284088,737.419434 509.565216,737.709229 
	C510.647156,737.804749 511.618774,739.149536 512.640808,739.923035 
	C511.810944,740.912537 511.023560,741.942261 510.137756,742.878845 
	C509.431305,743.625854 508.604950,744.259399 507.796387,745.395508 
z"/>
<path fill="#4E9ECE" opacity="1.000000" stroke="none" 
	d="
M1033.476440,737.796631 
	C1034.995605,738.667053 1036.608032,739.397522 1037.193481,740.619873 
	C1037.777954,741.840393 1037.339233,743.553345 1037.340698,745.050476 
	C1037.348022,752.338562 1037.346924,752.338562 1044.770264,753.380920 
	C1044.770264,754.721436 1044.770264,756.109436 1044.770264,757.703552 
	C1043.204956,757.803894 1041.905273,757.940796 1040.604004,757.959351 
	C1037.963013,757.997009 1035.321167,757.970581 1031.359375,757.970581 
	C1031.974487,750.946960 1032.546997,744.409668 1033.476440,737.796631 
z"/>
<path fill="#4E9DCC" opacity="1.000000" stroke="none" 
	d="
M948.243042,757.973877 
	C946.636230,757.000793 944.565552,756.099426 944.485657,755.046814 
	C944.123596,750.279846 944.157654,745.459900 944.450500,740.683716 
	C944.515137,739.629944 946.213318,738.676392 947.159180,737.676636 
	C948.095947,738.697388 949.480164,739.577576 949.856628,740.774597 
	C950.330261,742.280396 949.982300,744.045532 949.984253,745.698730 
	C949.992310,752.499634 949.991699,752.499634 957.143433,753.260559 
	C957.204529,754.574219 957.268799,755.955933 957.362732,757.975891 
	C954.206482,757.975891 951.451172,757.975891 948.243042,757.973877 
z"/>
<path fill="#4E9ECE" opacity="1.000000" stroke="none" 
	d="
M54.966766,752.867920 
	C56.899231,753.713867 58.377712,754.539001 59.856194,755.364136 
	C58.432529,756.232666 57.090908,757.610229 55.566841,757.855835 
	C52.991112,758.270935 50.299931,757.969788 47.193600,757.969788 
	C47.193600,751.256592 47.193600,744.899780 47.193600,737.983093 
	C48.642368,737.917236 50.166119,737.847961 52.300762,737.750916 
	C52.300762,741.700989 52.085621,745.172424 52.401478,748.594910 
	C52.537125,750.064758 53.775436,751.432739 54.966766,752.867920 
z"/>
<path fill="#4E9DCC" opacity="1.000000" stroke="none" 
	d="
M1189.715576,748.957397 
	C1189.716553,746.323608 1189.845093,744.156677 1189.689331,742.010376 
	C1189.402466,738.056091 1191.026367,736.825500 1195.414307,738.393066 
	C1195.414307,741.603333 1195.528442,745.041260 1195.379883,748.467834 
	C1195.249146,751.487305 1196.065063,753.116943 1199.514282,753.050781 
	C1200.620850,753.029541 1201.757690,754.579163 1202.880615,755.410156 
	C1201.774414,756.257874 1200.739502,757.692322 1199.547852,757.837158 
	C1196.623047,758.192322 1193.626099,757.953308 1189.714844,757.953308 
	C1189.714844,754.890869 1189.714844,752.162231 1189.715576,748.957397 
z"/>
<path fill="#4E9ECE" opacity="1.000000" stroke="none" 
	d="
M279.306213,745.158813 
	C279.101990,749.714172 278.609985,753.967712 285.042328,753.090149 
	C285.511414,753.026184 286.823181,754.810242 286.659729,755.464417 
	C286.421112,756.419189 285.253113,757.757141 284.387909,757.830566 
	C281.111633,758.108337 277.797729,757.942322 273.726349,757.942322 
	C273.726349,751.667053 273.526733,745.747925 273.926544,739.869568 
	C273.991730,738.910950 276.705231,738.132446 279.306732,736.627258 
	C279.306732,740.455505 279.306732,742.575745 279.306213,745.158813 
z"/>
<path fill="#4E9ECE" opacity="1.000000" stroke="none" 
	d="
M973.343140,746.081360 
	C973.086121,750.261963 972.966858,753.757019 978.495911,753.058594 
	C979.191467,752.970703 980.098389,754.555359 980.907349,755.364990 
	C979.985474,756.228699 979.130615,757.731873 978.129028,757.837097 
	C975.027588,758.162537 971.870361,757.955994 967.833923,757.955994 
	C967.833923,751.713623 967.623169,745.811523 968.032776,739.952759 
	C968.104492,738.927124 970.782593,738.083801 973.343567,736.472656 
	C973.343567,740.707947 973.343567,743.160889 973.343140,746.081360 
z"/>
<path fill="#4891BD" opacity="1.000000" stroke="none" 
	d="
M816.742249,749.907410 
	C816.723572,752.045959 817.046875,753.814331 816.570374,755.331543 
	C816.235779,756.396729 814.643494,757.952393 813.911926,757.804932 
	C812.740051,757.568726 810.988708,756.153198 810.927124,755.147644 
	C810.623108,750.182312 810.651855,745.180054 810.925598,740.210815 
	C810.976257,739.291199 812.864197,737.631348 813.600098,737.783630 
	C814.773193,738.026245 816.422485,739.398682 816.576477,740.478027 
	C816.994812,743.410217 816.734070,746.439270 816.742249,749.907410 
z"/>
<path fill="#4891BD" opacity="1.000000" stroke="none" 
	d="
M1119.035889,737.602539 
	C1120.195435,738.634583 1121.588989,739.624573 1121.646118,740.686584 
	C1121.894409,745.297607 1121.957397,749.944824 1121.615967,754.543823 
	C1121.525757,755.759827 1119.752197,756.850952 1118.751587,757.999451 
	C1117.761597,756.849304 1116.012817,755.758423 1115.917725,754.538452 
	C1115.571899,750.106079 1115.572021,745.614563 1115.910400,741.181213 
	C1116.006470,739.922852 1117.696167,738.786133 1119.035889,737.602539 
z"/>
<path fill="#4891BD" opacity="1.000000" stroke="none" 
	d="
M852.308594,754.550415 
	C852.304016,749.626343 852.128052,745.140320 852.440430,740.688538 
	C852.516968,739.598389 854.191284,738.620422 855.131042,737.590881 
	C856.122009,738.576477 857.901733,739.511475 857.968811,740.556396 
	C858.276184,745.341370 858.241699,750.164246 857.996094,754.956299 
	C857.942383,756.003662 856.520752,756.980896 855.729187,757.990417 
	C854.591797,756.993896 853.454407,755.997437 852.308594,754.550415 
z"/>
<path fill="#4E9DCC" opacity="1.000000" stroke="none" 
	d="
M175.385590,746.118286 
	C175.384995,750.188171 175.384995,753.788086 175.384995,757.207703 
	C171.178223,758.800476 169.513245,757.795593 169.696854,753.752808 
	C169.884445,749.622681 169.528671,745.460083 169.867432,741.349243 
	C169.973373,740.063843 171.561493,738.900513 172.471161,737.681335 
	C173.439865,738.847168 174.777267,739.876770 175.272446,741.217529 
	C175.757065,742.529480 175.383224,744.158508 175.385590,746.118286 
z"/>
<path fill="#4891BD" opacity="1.000000" stroke="none" 
	d="
M899.197937,740.598633 
	C900.490051,739.339783 901.771912,738.509705 903.053711,737.679688 
	C903.634216,738.713440 904.683899,739.732727 904.716553,740.783569 
	C904.885681,746.235352 904.795288,751.695190 904.795288,757.272034 
	C901.041504,758.626709 899.015686,758.266541 899.153625,753.986023 
	C899.292664,749.670654 899.186462,745.347290 899.197937,740.598633 
z"/>
<path fill="#52A4D7" opacity="1.000000" stroke="none" 
	d="
M129.033981,740.350342 
	C129.066055,745.457764 129.237778,750.109985 128.947632,754.733154 
	C128.878403,755.836426 127.267860,756.843018 126.366257,757.894104 
	C125.570236,756.906067 124.141991,755.951904 124.086823,754.924072 
	C123.838409,750.295898 123.874702,745.642639 124.059196,741.008423 
	C124.101372,739.948975 125.138916,738.929199 125.718330,737.891174 
	C126.813698,738.555542 127.909073,739.219971 129.033981,740.350342 
z"/>
<path fill="#50A1D2" opacity="1.000000" stroke="none" 
	d="
M202.791534,750.118408 
	C207.422638,749.449341 211.952255,749.118347 216.487823,748.967773 
	C217.018646,748.950195 217.911728,749.857178 218.041931,750.463257 
	C218.182800,751.119080 217.611954,752.574280 217.375626,752.569153 
	C212.549255,752.464539 207.725800,752.209167 202.906509,751.907898 
	C202.806213,751.901672 202.762115,750.996399 202.791534,750.118408 
z"/>
<path fill="#4891BD" opacity="1.000000" stroke="none" 
	d="
M700.082397,761.407837 
	C699.333923,759.767090 698.594849,758.242737 698.564331,756.704285 
	C698.542297,755.591614 699.242126,754.244019 700.050049,753.425842 
	C700.473999,752.996521 702.268616,753.131409 702.656311,753.627380 
	C703.367554,754.537292 704.104065,756.163513 703.736389,757.023621 
	C703.022827,758.692932 701.552246,760.038513 700.082397,761.407837 
z"/>
<path fill="#152F3D" opacity="1.000000" stroke="none" 
	d="
M640.978699,318.440918 
	C643.100952,325.560455 641.700928,330.972717 637.060120,334.555298 
	C632.674805,337.940674 626.284241,338.181122 621.576172,335.138000 
	C617.104370,332.247589 614.852417,326.704102 615.906982,321.182434 
	C616.875854,316.109009 621.164551,311.780548 626.267395,310.923584 
	C632.792236,309.827789 637.632385,312.309357 640.978699,318.440918 
z"/>
<path fill="#193748" opacity="1.000000" stroke="none" 
	d="
M758.382141,659.090820 
	C759.736572,655.063171 761.075195,651.420837 762.413818,647.778442 
	C762.872559,647.775391 763.331238,647.772400 763.789978,647.769348 
	C765.246704,651.774292 766.703430,655.779297 768.160095,659.784241 
	C767.857910,660.268494 767.555664,660.752747 767.253418,661.237000 
	C764.291016,660.650024 761.328674,660.062988 758.382141,659.090820 
z"/>
<path fill="#193748" opacity="1.000000" stroke="none" 
	d="
M1060.713379,751.305847 
	C1058.465698,748.464661 1058.645386,745.818970 1061.272217,744.164307 
	C1062.664551,743.287170 1065.509644,742.992920 1066.626343,743.843567 
	C1067.986084,744.879272 1068.971924,747.479797 1068.775391,749.254822 
	C1068.397583,752.671021 1065.127441,753.461121 1060.713379,751.305847 
z"/>
<path fill="#193748" opacity="1.000000" stroke="none" 
	d="
M434.494171,752.642578 
	C430.209625,753.091736 427.922729,751.281921 428.132721,747.366516 
	C428.302460,744.201843 430.621368,742.515320 433.654358,743.142517 
	C435.150848,743.451965 437.507568,745.294373 437.438019,746.302673 
	C437.291748,748.423584 435.800995,750.451782 434.494171,752.642578 
z"/>
<path fill="#132B39" opacity="1.000000" stroke="none" 
	d="
M657.015015,744.431274 
	C656.669739,744.040100 656.670654,743.657288 656.671570,743.274536 
	C656.834656,743.276978 657.128601,743.243774 657.140442,743.287354 
	C657.242859,743.663635 657.294373,744.053711 657.015015,744.431274 
z"/>
</svg>